<svg width="57" height="24" viewBox="0 0 57 24" fill="none" xmlns="http://www.w3.org/2000/svg">
<path d="M57 2.57324V23.6953H52.9531V22.375C51.3658 23.458 49.6084 24 47.6816 24C45.119 24 42.9308 23.0922 41.1172 21.2754C39.3033 19.4593 38.3966 17.2756 38.3965 14.7256C38.3965 12.1757 39.3034 9.99788 41.1172 8.19238C42.9308 6.38705 45.119 5.4834 47.6816 5.4834C49.6084 5.48342 51.3658 6.02539 52.9531 7.1084V0L57 2.57324ZM24.249 23.6953H19.4873C18.7163 22.432 17.6791 21.4275 16.376 20.6826C15.0719 19.9379 13.6489 19.5654 12.1074 19.5654C10.5652 19.5654 9.14255 19.9379 7.83887 20.6826C6.53508 21.4275 5.49793 22.432 4.72754 23.6953H0C0.113011 23.3568 0.272376 22.9962 0.476562 22.6123L9.93066 0H14.3516L24.249 23.6953ZM29.5195 8.19238C31.6056 6.63532 34.281 5.85649 37.5459 5.85645V9.88477C36.4802 9.88478 35.5111 9.98644 34.6387 10.1895C33.7657 10.3927 33.0621 10.6689 32.5293 11.0186C31.9969 11.3685 31.544 11.7181 31.1699 12.0674C30.7957 12.4177 30.5118 12.8014 30.3193 13.2188C30.1265 13.6364 29.9901 13.9631 29.9111 14.2002C29.8311 14.4369 29.7805 14.6573 29.7578 14.8604V23.6953H25.7109V5.78906L29.5195 8.19238ZM47.6982 9.5127C46.2581 9.51274 45.0225 10.0198 43.9912 11.0352C42.9592 12.0506 42.4443 13.2814 42.4443 14.7256C42.4444 16.1698 42.9594 17.4052 43.9912 18.4316C45.0225 19.4588 46.258 19.9716 47.6982 19.9717C49.1378 19.9717 50.3732 19.4588 51.4053 18.4316C52.4366 17.4052 52.953 16.1698 52.9531 14.7256C52.9531 13.2814 52.4367 12.0506 51.4053 11.0352C50.3733 10.0199 49.1377 9.5127 47.6982 9.5127ZM7.5498 16.1807C9.02346 15.6169 10.543 15.335 12.1074 15.335C13.694 15.335 15.236 15.617 16.7324 16.1807L12.1416 5.17969L7.5498 16.1807Z" fill="black"/>
</svg>
