<svg width="18" height="18" viewBox="0 0 18 18" fill="none" xmlns="http://www.w3.org/2000/svg">
<path d="M5.34375 15.125C5.36033 15.125 5.37597 15.1318 5.3877 15.1436C5.39942 15.1553 5.40625 15.1709 5.40625 15.1875C5.40625 15.2041 5.39942 15.2197 5.3877 15.2314C5.37597 15.2432 5.36033 15.25 5.34375 15.25H3.375C3.24005 15.25 3.11099 15.2045 3.00391 15.125H5.34375ZM12.6562 15.125H14.9961C14.889 15.2045 14.76 15.25 14.625 15.25H12.6562C12.6397 15.25 12.624 15.2432 12.6123 15.2314C12.6006 15.2197 12.5938 15.2041 12.5938 15.1875C12.5938 15.1709 12.6006 15.1553 12.6123 15.1436C12.624 15.1318 12.6397 15.125 12.6562 15.125ZM2.8125 12.5938C2.82908 12.5938 2.84472 12.6006 2.85645 12.6123C2.86817 12.624 2.875 12.6397 2.875 12.6562V14.9951C2.79582 14.8882 2.75 14.7597 2.75 14.625V12.6562C2.75 12.6397 2.75683 12.624 2.76855 12.6123C2.78028 12.6006 2.79592 12.5938 2.8125 12.5938ZM15.1875 12.5938C15.2041 12.5938 15.2197 12.6006 15.2314 12.6123C15.2432 12.624 15.25 12.6397 15.25 12.6562V14.625C15.25 14.7597 15.2042 14.8882 15.125 14.9951V12.6562C15.125 12.6397 15.1318 12.624 15.1436 12.6123C15.1553 12.6006 15.1709 12.5938 15.1875 12.5938ZM8.99805 5.56055C9.46432 5.56058 9.91996 5.70141 10.3047 5.96484C10.6894 6.2283 10.9857 6.60241 11.1543 7.03711C11.3228 7.47175 11.3555 7.94754 11.249 8.40137C11.1425 8.85523 10.9009 9.26671 10.5566 9.58105L9.98633 10.1016L10.6953 10.4092C11.38 10.7056 11.9752 11.1758 12.4219 11.7734L12.4238 11.7754C12.4305 11.7845 12.4345 11.7954 12.4355 11.8066C12.4366 11.818 12.4347 11.8296 12.4297 11.8398C12.4245 11.8502 12.4161 11.8591 12.4062 11.8652C12.3965 11.8713 12.3855 11.8749 12.374 11.875C12.3643 11.875 12.3544 11.8725 12.3457 11.8682C12.3371 11.8638 12.329 11.8573 12.3232 11.8496C11.9363 11.3341 11.4349 10.9153 10.8584 10.627C10.2813 10.3384 9.64426 10.1885 8.99902 10.1885C8.3539 10.1885 7.71764 10.3385 7.14062 10.627C6.56351 10.9155 6.06097 11.3344 5.67383 11.8506C5.66381 11.8636 5.64911 11.8727 5.63281 11.875C5.61661 11.8772 5.60008 11.873 5.58691 11.8633C5.57357 11.8533 5.56387 11.8378 5.56152 11.8213C5.55922 11.8048 5.56422 11.7877 5.57422 11.7744L5.5752 11.7734C6.02151 11.1759 6.6165 10.7049 7.30078 10.4082L8.00879 10.1016L7.43848 9.58105C7.09414 9.26668 6.85263 8.85529 6.74609 8.40137C6.63961 7.9475 6.6733 7.47178 6.8418 7.03711C7.01042 6.60234 7.30664 6.22831 7.69141 5.96484C8.07617 5.70139 8.53173 5.56055 8.99805 5.56055ZM9.42676 5.72949C9.00243 5.64509 8.56279 5.68893 8.16309 5.85449C7.76337 6.02006 7.42201 6.30042 7.18164 6.66016C6.94132 7.01987 6.8125 7.44239 6.8125 7.875L6.82324 8.09082C6.87289 8.59173 7.09408 9.06283 7.45312 9.42188C7.86336 9.83211 8.41984 10.0625 9 10.0625C9.43261 10.0625 9.85513 9.93368 10.2148 9.69336C10.5746 9.45299 10.8549 9.11163 11.0205 8.71191C11.1861 8.31221 11.2299 7.87257 11.1455 7.44824C11.0611 7.02391 10.8528 6.63405 10.5469 6.32812C10.2409 6.0222 9.85109 5.8139 9.42676 5.72949ZM2.875 5.34375C2.875 5.36033 2.86817 5.37597 2.85645 5.3877C2.84472 5.39942 2.82908 5.40625 2.8125 5.40625C2.79592 5.40625 2.78028 5.39942 2.76855 5.3877C2.75683 5.37597 2.75 5.36033 2.75 5.34375V3.375C2.75 3.24005 2.79552 3.11099 2.875 3.00391V5.34375ZM15.125 3.00391C15.2045 3.11099 15.25 3.24005 15.25 3.375V5.34375C15.25 5.36033 15.2432 5.37597 15.2314 5.3877C15.2197 5.39942 15.2041 5.40625 15.1875 5.40625C15.1709 5.40625 15.1553 5.39942 15.1436 5.3877C15.1318 5.37597 15.125 5.36033 15.125 5.34375V3.00391ZM12.6562 2.75H14.625C14.76 2.75 14.889 2.79552 14.9961 2.875H12.6562C12.6397 2.875 12.624 2.86817 12.6123 2.85645C12.6006 2.84472 12.5938 2.82908 12.5938 2.8125C12.5938 2.79592 12.6006 2.78028 12.6123 2.76855C12.6183 2.7626 12.6252 2.758 12.6328 2.75488L12.6562 2.75ZM3.375 2.75H5.34375C5.36033 2.75 5.37597 2.75683 5.3877 2.76855C5.39942 2.78028 5.40625 2.79592 5.40625 2.8125C5.40625 2.82908 5.39942 2.84472 5.3877 2.85645C5.37597 2.86817 5.36033 2.875 5.34375 2.875H3.00391C3.11099 2.79552 3.24005 2.75 3.375 2.75Z" stroke="white"/>
</svg>
