<svg width="14" height="14" viewBox="0 0 14 14" fill="none" xmlns="http://www.w3.org/2000/svg">
<path d="M6.99902 1.8125C8.37428 1.81514 9.69258 2.36251 10.665 3.33496C11.5768 4.24671 12.1148 5.46247 12.1807 6.74414L12.1875 7.00098C12.1873 8.02653 11.8832 9.02908 11.3135 9.88184C10.7435 10.7349 9.93323 11.4003 8.98535 11.793C8.03756 12.1856 6.99446 12.288 5.98828 12.0879C4.982 11.8877 4.05752 11.3935 3.33203 10.668C2.60655 9.94248 2.11227 9.01799 1.91211 8.01172C1.71203 7.00554 1.81444 5.96244 2.20703 5.01465C2.59966 4.06677 3.26509 3.25653 4.11816 2.68652C4.97092 2.11679 5.97347 1.81269 6.99902 1.8125ZM9.34668 4.76367C9.13716 4.77405 8.93576 4.8541 8.77637 4.99316L8.76074 5.00879L6.19629 7.45215L5.23926 6.54004H5.23828C5.17561 6.47817 5.10547 6.42476 5.02832 6.38281L4.94336 6.3418L4.85449 6.30957C4.79437 6.29121 4.73249 6.27943 4.66992 6.27344L4.5752 6.26855C4.4806 6.2691 4.3867 6.28399 4.29688 6.3125L4.20801 6.3457C4.121 6.3834 4.04032 6.43444 3.96875 6.49609L3.90039 6.56152C3.83521 6.63028 3.78087 6.70825 3.73926 6.79297L3.70215 6.87988C3.65813 6.99834 3.63856 7.12474 3.64453 7.25098C3.65055 7.37702 3.68142 7.50064 3.73633 7.61426C3.78793 7.72099 3.86002 7.81643 3.94727 7.89648V7.89746L5.5498 9.42773C5.63578 9.51097 5.73653 9.5776 5.84766 9.62207C5.95751 9.66601 6.0751 9.68695 6.19336 9.68652V9.6875C6.19466 9.68751 6.19596 9.68652 6.19727 9.68652C6.19922 9.68651 6.20117 9.68753 6.20312 9.6875L6.20215 9.68652C6.4409 9.68569 6.67061 9.59531 6.84473 9.43164L6.84766 9.42871L10.0527 6.36621L10.0596 6.35938L10.0654 6.35254C10.2339 6.17895 10.3297 5.94699 10.3311 5.70508C10.3324 5.46329 10.2396 5.23014 10.0732 5.05469C9.92764 4.90122 9.735 4.80251 9.52734 4.77246L9.4375 4.76367H9.34668Z" fill="#1F845A" stroke="#1F845A"/>
</svg>
