<svg width="32" height="32" viewBox="0 0 32 32" fill="none" xmlns="http://www.w3.org/2000/svg">
<g clip-path="url(#clip0_10617_15140)">
<path d="M15.9992 32C17.9563 32 19.8311 31.648 21.5643 31.0048L22.26 16L21.5644 0.995188C19.8311 0.352063 17.9563 0 15.9992 0C14.042 0 12.1672 0.352063 10.434 0.995188L9.73828 16L10.4339 31.0048C12.1672 31.648 14.042 32 15.9992 32Z" fill="#0052B4"/>
<path d="M-0.000244141 15.9994C-0.000244141 22.8789 4.34176 28.7436 10.4346 31.0043V0.994629C4.34176 3.25532 -0.000244141 9.12 -0.000244141 15.9994Z" fill="#A2001D"/>
<path d="M21.5647 0.994629V31.0043C27.6575 28.7436 31.9995 22.8789 31.9995 15.9994C31.9995 9.12 27.6575 3.25532 21.5647 0.994629Z" fill="#A2001D"/>
<path d="M9.04366 15.9988H7.65234V21.564H9.04366V15.9988Z" fill="#FFDA44"/>
<path d="M3.47847 15.9988H2.08716V21.564H3.47847V15.9988Z" fill="#FFDA44"/>
<path d="M5.56563 19.4779C6.33403 19.4779 6.95694 18.855 6.95694 18.0866C6.95694 17.3182 6.33403 16.6953 5.56563 16.6953C4.79723 16.6953 4.17432 17.3182 4.17432 18.0866C4.17432 18.855 4.79723 19.4779 5.56563 19.4779Z" fill="#FFDA44"/>
<path d="M5.56525 13.9108C5.94944 13.9108 6.26088 13.5993 6.26088 13.2152C6.26088 12.831 5.94944 12.5195 5.56525 12.5195C5.18107 12.5195 4.86963 12.831 4.86963 13.2152C4.86963 13.5993 5.18107 13.9108 5.56525 13.9108Z" fill="#FFDA44"/>
<path d="M6.95694 20.1719H4.17432V21.5632H6.95694V20.1719Z" fill="#FFDA44"/>
<path d="M6.95694 14.6069H4.17432V15.9982H6.95694V14.6069Z" fill="#FFDA44"/>
<path d="M5.56594 8.34644L6.05869 9.86269H7.65294L6.36325 10.7998L6.85563 12.3161L5.56594 11.3789L4.27632 12.3161L4.76869 10.7998L3.479 9.86269H5.07325L5.56594 8.34644Z" fill="#FFDA44"/>
</g>
<defs>
<clipPath id="clip0_10617_15140">
<rect width="32" height="32" fill="white"/>
</clipPath>
</defs>
</svg>
