<svg width="32" height="32" viewBox="0 0 32 32" fill="none" xmlns="http://www.w3.org/2000/svg">
<g clip-path="url(#clip0_10617_15900)">
<path d="M16 32C24.8366 32 32 24.8366 32 16C32 7.16344 24.8366 0 16 0C7.16344 0 0 7.16344 0 16C0 24.8366 7.16344 32 16 32Z" fill="#F0F0F0"/>
<path d="M0 15.9998C0 24.8363 7.1635 31.9998 16 31.9998C16 25.9151 16 15.9998 16 15.9998C16 15.9998 5.56519 15.9998 0 15.9998Z" fill="#0052B4"/>
<path d="M16 0.0012207C24.8365 0.0012207 32 7.16472 32 16.0012C25.9153 16.0012 16 16.0012 16 16.0012C16 16.0012 16 5.56641 16 0.0012207Z" fill="#D80027"/>
<path d="M9.52547 5.56641L10.5615 8.75503H13.9142L11.2018 10.7257L12.2378 13.9143L9.52547 11.9436L6.81309 13.9143L7.84909 10.7257L5.13672 8.75503H8.48941L9.52547 5.56641Z" fill="#0052B4"/>
<path d="M22.4762 18.0862L23.5122 21.2748H26.8649L24.1525 23.2454L25.1885 26.4341L22.4762 24.4634L19.7638 26.4341L20.7998 23.2454L18.0874 21.2748H21.4401L22.4762 18.0862Z" fill="#D80027"/>
</g>
<defs>
<clipPath id="clip0_10617_15900">
<rect width="32" height="32" fill="white"/>
</clipPath>
</defs>
</svg>
