<svg width="32" height="32" viewBox="0 0 32 32" fill="none" xmlns="http://www.w3.org/2000/svg">
<g clip-path="url(#clip0_10617_13825)">
<path d="M22.9554 1.58689C20.8519 0.569768 18.4921 -0.000732422 15.9989 -0.000732422C13.5057 -0.000732422 11.1459 0.569768 9.04243 1.58689L7.65112 15.9993L9.04243 30.4116C11.1459 31.4288 13.5057 31.9993 15.9989 31.9993C18.4921 31.9993 20.8519 31.4288 22.9554 30.4116L24.3467 15.9993L22.9554 1.58689Z" fill="#F0F0F0"/>
<path d="M9.0435 1.58838C3.69156 4.17625 0 9.65682 0 16.0002C0 22.3436 3.69156 27.8241 9.0435 30.412V1.58838Z" fill="#6DA544"/>
<path d="M22.9558 1.58838V30.412C28.3077 27.8241 31.9993 22.3435 31.9993 16.0002C31.9993 9.65688 28.3077 4.17625 22.9558 1.58838Z" fill="#6DA544"/>
<path d="M20.1748 20.869L16.0008 7.65161L11.8269 20.869H14.9573V24.3472H17.0443V20.869H20.1748Z" fill="#6DA544"/>
</g>
<defs>
<clipPath id="clip0_10617_13825">
<rect width="32" height="32" fill="white"/>
</clipPath>
</defs>
</svg>
