<svg width="40" height="40" viewBox="0 0 40 40" fill="none" xmlns="http://www.w3.org/2000/svg">
<rect width="40" height="40" rx="20" fill="#FFE5E5"/>
<path d="M23.5303 16.4697C23.671 16.6103 23.75 16.8011 23.75 17C23.75 17.1989 23.671 17.3897 23.5303 17.5303L21.0607 20L23.5303 22.4697C23.5998 22.5391 23.6548 22.6218 23.6923 22.7128C23.7298 22.8039 23.749 22.9015 23.749 23C23.749 23.0985 23.7298 23.1961 23.6923 23.2872C23.6548 23.3782 23.5998 23.4609 23.5303 23.5303C23.4609 23.5998 23.3782 23.6548 23.2872 23.6923C23.1961 23.7298 23.0985 23.749 23 23.749C22.9015 23.749 22.8039 23.7298 22.7128 23.6923C22.6218 23.6548 22.5391 23.5998 22.4697 23.5303L20 21.0607L17.5303 23.5303C17.4609 23.5998 17.3782 23.6548 17.2872 23.6923C17.1961 23.7298 17.0985 23.749 17 23.749C16.9015 23.749 16.8039 23.7298 16.7128 23.6923C16.6218 23.6548 16.5391 23.5998 16.4697 23.5303C16.4002 23.4609 16.3452 23.3782 16.3077 23.2872C16.2702 23.1961 16.251 23.0985 16.251 23C16.251 22.9015 16.2702 22.8039 16.3077 22.7128C16.3452 22.6218 16.4002 22.5391 16.4697 22.4697L18.9393 20L16.4697 17.5303C16.329 17.3897 16.25 17.1989 16.25 17C16.25 16.8011 16.329 16.6103 16.4697 16.4697C16.6103 16.329 16.8011 16.25 17 16.25C17.1989 16.25 17.3897 16.329 17.5303 16.4697L20 18.9393L22.4697 16.4697C22.6103 16.329 22.8011 16.25 23 16.25C23.1989 16.25 23.3897 16.329 23.5303 16.4697ZM29.75 20C29.75 21.9284 29.1782 23.8134 28.1068 25.4168C27.0355 27.0202 25.5127 28.2699 23.7312 29.0078C21.9496 29.7458 19.9892 29.9389 18.0979 29.5627C16.2066 29.1865 14.4693 28.2579 13.1057 26.8943C11.7422 25.5307 10.8136 23.7934 10.4373 21.9021C10.0611 20.0108 10.2542 18.0504 10.9922 16.2688C11.7301 14.4873 12.9798 12.9645 14.5832 11.8932C16.1866 10.8218 18.0716 10.25 20 10.25C22.585 10.2527 25.0634 11.2808 26.8913 13.1087C28.7192 14.9366 29.7473 17.415 29.75 20ZM28.25 20C28.25 18.3683 27.7661 16.7733 26.8596 15.4165C25.9531 14.0598 24.6646 13.0024 23.1571 12.378C21.6497 11.7536 19.9909 11.5902 18.3905 11.9085C16.7902 12.2268 15.3202 13.0126 14.1664 14.1664C13.0126 15.3202 12.2269 16.7902 11.9085 18.3905C11.5902 19.9908 11.7536 21.6496 12.378 23.1571C13.0024 24.6646 14.0598 25.9531 15.4165 26.8596C16.7733 27.7661 18.3683 28.25 20 28.25C22.1873 28.2475 24.2843 27.3775 25.8309 25.8309C27.3775 24.2843 28.2475 22.1873 28.25 20Z" fill="#DC2626"/>
</svg>
