<svg width="40" height="40" viewBox="0 0 40 40" fill="none" xmlns="http://www.w3.org/2000/svg">
<rect width="40" height="40" rx="20" fill="#FFF4DC"/>
<path d="M20 16.25C20.1989 16.25 20.3897 16.329 20.5303 16.4697C20.671 16.6103 20.75 16.8011 20.75 17V20.75C20.75 20.9489 20.671 21.1397 20.5303 21.2803C20.3897 21.421 20.1989 21.5 20 21.5C19.8011 21.5 19.6103 21.421 19.4697 21.2803C19.329 21.1397 19.25 20.9489 19.25 20.75V17C19.25 16.8011 19.329 16.6103 19.4697 16.4697C19.6103 16.329 19.8011 16.25 20 16.25ZM20 24.5C20.2984 24.5 20.5845 24.3815 20.7955 24.1705C21.0065 23.9595 21.125 23.6734 21.125 23.375C21.125 23.0766 21.0065 22.7905 20.7955 22.5795C20.5845 22.3685 20.2984 22.25 20 22.25C19.7016 22.25 19.4155 22.3685 19.2045 22.5795C18.9935 22.7905 18.875 23.0766 18.875 23.375C18.875 23.6734 18.9935 23.9595 19.2045 24.1705C19.4155 24.3815 19.7016 24.5 20 24.5ZM29.75 20C29.75 21.9284 29.1782 23.8134 28.1068 25.4168C27.0355 27.0202 25.5127 28.2699 23.7312 29.0078C21.9496 29.7458 19.9892 29.9389 18.0979 29.5627C16.2066 29.1865 14.4693 28.2579 13.1057 26.8943C11.7422 25.5307 10.8136 23.7934 10.4373 21.9021C10.0611 20.0108 10.2542 18.0504 10.9922 16.2688C11.7301 14.4873 12.9798 12.9645 14.5832 11.8932C16.1866 10.8218 18.0716 10.25 20 10.25C22.585 10.2527 25.0634 11.2808 26.8913 13.1087C28.7192 14.9366 29.7473 17.415 29.75 20ZM28.25 20C28.25 18.3683 27.7661 16.7733 26.8596 15.4165C25.9531 14.0598 24.6646 13.0024 23.1571 12.378C21.6497 11.7536 19.9909 11.5902 18.3905 11.9085C16.7902 12.2268 15.3202 13.0126 14.1664 14.1664C13.0126 15.3202 12.2269 16.7902 11.9085 18.3905C11.5902 19.9908 11.7536 21.6496 12.378 23.1571C13.0024 24.6646 14.0598 25.9531 15.4165 26.8596C16.7733 27.7661 18.3683 28.25 20 28.25C22.1873 28.2475 24.2843 27.3775 25.8309 25.8309C27.3775 24.2843 28.2475 22.1873 28.25 20Z" fill="#D97706"/>
</svg>
