<svg width="56" height="56" viewBox="0 0 56 56" fill="none" xmlns="http://www.w3.org/2000/svg">
<rect x="0.5" y="0.5" width="55" height="55" rx="27.5" fill="white"/>
<rect x="0.5" y="0.5" width="55" height="55" rx="27.5" stroke="#E0E0E0"/>
<path d="M37.6486 35.8746C36.2208 33.4062 34.0205 31.6362 31.4527 30.7971C32.7229 30.041 33.7097 28.8888 34.2617 27.5176C34.8136 26.1463 34.9002 24.6317 34.5081 23.2065C34.116 21.7813 33.2668 20.5242 32.0911 19.6282C30.9154 18.7323 29.4781 18.2471 27.9999 18.2471C26.5217 18.2471 25.0844 18.7323 23.9087 19.6282C22.7329 20.5242 21.8838 21.7813 21.4917 23.2065C21.0996 24.6317 21.1862 26.1463 21.7381 27.5176C22.2901 28.8888 23.2769 30.041 24.5471 30.7971C21.9793 31.6352 19.779 33.4052 18.3511 35.8746C18.2988 35.96 18.264 36.055 18.249 36.154C18.2339 36.253 18.2389 36.3541 18.2635 36.4511C18.2881 36.5482 18.332 36.6394 18.3924 36.7192C18.4528 36.7991 18.5286 36.8661 18.6153 36.9162C18.7021 36.9663 18.798 36.9985 18.8973 37.0109C18.9967 37.0234 19.0976 37.0158 19.194 36.9886C19.2904 36.9614 19.3803 36.9152 19.4586 36.8527C19.5368 36.7902 19.6018 36.7126 19.6496 36.6246C21.4158 33.5721 24.5377 31.7496 27.9999 31.7496C31.4621 31.7496 34.584 33.5721 36.3502 36.6246C36.398 36.7126 36.4629 36.7902 36.5412 36.8527C36.6194 36.9152 36.7094 36.9614 36.8058 36.9886C36.9022 37.0158 37.0031 37.0234 37.1024 37.0109C37.2018 36.9985 37.2977 36.9663 37.3844 36.9162C37.4712 36.8661 37.547 36.7991 37.6074 36.7192C37.6678 36.6394 37.7116 36.5482 37.7363 36.4511C37.7609 36.3541 37.7658 36.253 37.7508 36.154C37.7357 36.055 37.701 35.96 37.6486 35.8746ZM22.7499 24.9996C22.7499 23.9613 23.0578 22.9462 23.6347 22.0829C24.2115 21.2195 25.0315 20.5466 25.9908 20.1493C26.9501 19.7519 28.0057 19.6479 29.0241 19.8505C30.0425 20.0531 30.978 20.5531 31.7122 21.2873C32.4464 22.0215 32.9464 22.957 33.149 23.9754C33.3516 24.9938 33.2476 26.0494 32.8503 27.0087C32.4529 27.968 31.78 28.788 30.9166 29.3648C30.0533 29.9417 29.0382 30.2496 27.9999 30.2496C26.608 30.2481 25.2735 29.6945 24.2892 28.7103C23.305 27.726 22.7514 26.3916 22.7499 24.9996Z" fill="black"/>
</svg>
