<svg width="24" height="24" viewBox="0 0 24 24" fill="none" xmlns="http://www.w3.org/2000/svg">
<path d="M21.6486 19.8746C20.2208 17.4062 18.0205 15.6362 15.4527 14.7971C16.7229 14.041 17.7097 12.8888 18.2617 11.5176C18.8136 10.1463 18.9002 8.63175 18.5081 7.20652C18.116 5.78129 17.2668 4.52418 16.0911 3.62824C14.9154 2.7323 13.4781 2.24707 11.9999 2.24707C10.5217 2.24707 9.08438 2.7323 7.90866 3.62824C6.73294 4.52418 5.88382 5.78129 5.49171 7.20652C5.09959 8.63175 5.18616 10.1463 5.73813 11.5176C6.29009 12.8888 7.27692 14.041 8.54708 14.7971C5.97926 15.6352 3.77895 17.4052 2.35114 19.8746C2.29878 19.96 2.26405 20.055 2.249 20.154C2.23394 20.253 2.23888 20.3541 2.2635 20.4511C2.28813 20.5482 2.33195 20.6394 2.39238 20.7192C2.45281 20.7991 2.52862 20.8661 2.61535 20.9162C2.70207 20.9663 2.79795 20.9985 2.89733 21.0109C2.99671 21.0234 3.09757 21.0158 3.19397 20.9886C3.29037 20.9614 3.38034 20.9152 3.45859 20.8527C3.53684 20.7902 3.60178 20.7126 3.64958 20.6246C5.41583 17.5721 8.5377 15.7496 11.9999 15.7496C15.4621 15.7496 18.584 17.5721 20.3502 20.6246C20.398 20.7126 20.4629 20.7902 20.5412 20.8527C20.6194 20.9152 20.7094 20.9614 20.8058 20.9886C20.9022 21.0158 21.0031 21.0234 21.1024 21.0109C21.2018 20.9985 21.2977 20.9663 21.3844 20.9162C21.4712 20.8661 21.547 20.7991 21.6074 20.7192C21.6678 20.6394 21.7116 20.5482 21.7363 20.4511C21.7609 20.3541 21.7658 20.253 21.7508 20.154C21.7357 20.055 21.701 19.96 21.6486 19.8746ZM6.74989 8.99962C6.74989 7.96127 7.05779 6.94624 7.63467 6.08288C8.21155 5.21952 9.03149 4.54661 9.9908 4.14925C10.9501 3.75189 12.0057 3.64793 13.0241 3.8505C14.0425 4.05307 14.978 4.55308 15.7122 5.28731C16.4464 6.02154 16.9464 6.957 17.149 7.9754C17.3516 8.9938 17.2476 10.0494 16.8503 11.0087C16.4529 11.968 15.78 12.788 14.9166 13.3648C14.0533 13.9417 13.0382 14.2496 11.9999 14.2496C10.608 14.2481 9.27347 13.6945 8.28922 12.7103C7.30498 11.726 6.75138 10.3916 6.74989 8.99962Z" fill="black"/>
</svg>
