<svg width="1080" height="1080" viewBox="0 0 1080 1080" fill="none" xmlns="http://www.w3.org/2000/svg">
<circle cx="540" cy="540" r="325.246" fill="url(#paint0_linear_10340_10806)"/>
<path d="M607.5 285.001L548.501 626.501C538.001 625.501 532.001 624.001 512.501 621.501C493.126 618.072 479.678 603.968 482.093 584.44L513.929 326.996C517.481 298.281 546.009 273.959 574.5 279.001C591.5 282.009 603.001 284.001 607.5 285.001ZM532.001 701.001C529.672 714.158 517.001 797.001 517.001 797.001C517.001 797.001 496.363 793.526 482.835 791.132L482.093 791.001C455.407 786.278 437.603 760.817 442.325 734.132C447.048 707.446 472.509 689.642 499.195 694.365L499.937 694.496C511.501 696.001 519.001 698.001 532.001 701.001Z" fill="#353535" stroke="#353535" stroke-width="3" stroke-linecap="round" stroke-linejoin="round"/>
<path d="M645.93 345.405L587.476 598.139C583.042 617.308 564.375 629.65 545 626.221C525.626 622.792 512.328 604.793 514.743 585.266L546.579 327.822C550.131 299.107 577.026 279.236 605.517 284.278C634.008 289.32 652.45 317.216 645.93 345.405ZM571.984 757.49C567.261 784.175 541.8 801.98 515.114 797.257L514.372 797.126C487.687 792.403 469.882 766.942 474.605 740.256C479.327 713.571 504.789 695.767 531.474 700.489L532.216 700.621C558.902 705.343 576.706 730.804 571.984 757.49Z" fill="white" stroke="#363636" stroke-width="3" stroke-linecap="round" stroke-linejoin="round"/>
<defs>
<linearGradient id="paint0_linear_10340_10806" x1="540" y1="214.754" x2="540" y2="784.357" gradientUnits="userSpaceOnUse">
<stop stop-color="#FFCA2C"/>
<stop offset="1" stop-color="#FFCA2C" stop-opacity="0"/>
</linearGradient>
</defs>
</svg>
