<svg width="14" height="14" viewBox="0 0 14 14" fill="none" xmlns="http://www.w3.org/2000/svg">
<path d="M7 1.375C8.49095 1.37789 9.92034 1.97112 10.9746 3.02539C12.0289 4.07966 12.6221 5.50905 12.625 7C12.625 8.11252 12.2948 9.19997 11.6768 10.125C11.0587 11.05 10.1802 11.7715 9.15234 12.1973C8.12461 12.6229 6.99335 12.7336 5.90234 12.5166C4.81133 12.2995 3.80905 11.7641 3.02246 10.9775C2.23587 10.1909 1.70048 9.18867 1.4834 8.09766C1.26638 7.00664 1.37712 5.87539 1.80273 4.84766C2.22847 3.81985 2.95 2.94132 3.875 2.32324C4.74228 1.74374 5.75235 1.41737 6.79199 1.37891L7 1.375ZM8.74414 4.77539C8.65001 4.77077 8.5571 4.79303 8.47559 4.83789L8.39844 4.88965L8.39355 4.89453L7 6.29297L5.60645 4.89453V4.89355L5.60156 4.88965L5.52441 4.83789C5.44291 4.79303 5.34999 4.77077 5.25586 4.77539C5.13053 4.78155 5.01158 4.83413 4.92285 4.92285C4.83413 5.01158 4.78155 5.13053 4.77539 5.25586C4.77077 5.34999 4.79303 5.4429 4.83789 5.52441L4.88965 5.60156L4.89453 5.60645L6.29297 7L4.89453 8.39355L4.89355 8.39453C4.79998 8.48915 4.74707 8.61691 4.74707 8.75C4.74707 8.88309 4.79998 9.01085 4.89355 9.10547L4.89453 9.10645C4.98981 9.19857 5.11747 9.25 5.25 9.25C5.38254 9.25 5.51019 9.19857 5.60547 9.10645L5.60645 9.10547L7 7.70605L8.39355 9.10547L8.39453 9.10645C8.48981 9.19857 8.61747 9.25 8.75 9.25C8.88254 9.25 9.01019 9.19857 9.10547 9.10645L9.10645 9.10547C9.20002 9.01085 9.25293 8.88309 9.25293 8.75C9.25293 8.61691 9.20002 8.48915 9.10645 8.39453L9.10547 8.39355L7.70605 7L9.10547 5.60645H9.10645L9.11035 5.60156C9.18994 5.50457 9.23076 5.38117 9.22461 5.25586C9.21845 5.13053 9.16588 5.01158 9.07715 4.92285C8.98842 4.83413 8.86947 4.78155 8.74414 4.77539Z" fill="#C9372C" stroke="#C9372C" stroke-width="0.125"/>
</svg>
